<?xml version="1.0" encoding="UTF-8" standalone="no"?>
<!-- Created with Inkscape (http://www.inkscape.org/) -->

<svg
   xmlns:dc="http://purl.org/dc/elements/1.1/"
   xmlns:cc="http://creativecommons.org/ns#"
   xmlns:rdf="http://www.w3.org/1999/02/22-rdf-syntax-ns#"
   xmlns:svg="http://www.w3.org/2000/svg"
   xmlns="http://www.w3.org/2000/svg"
   xmlns:sodipodi="http://sodipodi.sourceforge.net/DTD/sodipodi-0.dtd"
   xmlns:inkscape="http://www.inkscape.org/namespaces/inkscape"
   width="1024"
   height="1024"
   viewBox="0 0 1024 1024"
   id="svg2"
   version="1.1"
   inkscape:version="0.91 r13725"
   sodipodi:docname="cover.svg"
   inkscape:export-filename="/Users/ambrosechua/Documents/graphics/makerforce/show/cover.png"
   inkscape:export-xdpi="180"
   inkscape:export-ydpi="180">
  <defs
     id="defs4" />
  <sodipodi:namedview
     id="base"
     pagecolor="#ffffff"
     bordercolor="#666666"
     borderopacity="1.0"
     inkscape:pageopacity="0.0"
     inkscape:pageshadow="2"
     inkscape:zoom="0.28"
     inkscape:cx="-523.21429"
     inkscape:cy="520"
     inkscape:document-units="px"
     inkscape:current-layer="layer1"
     showgrid="false"
     units="px"
     inkscape:window-width="1362"
     inkscape:window-height="723"
     inkscape:window-x="0"
     inkscape:window-y="0"
     inkscape:window-maximized="0"
     showguides="false" />
  <metadata
     id="metadata7">
    <rdf:RDF>
      <cc:Work
         rdf:about="">
        <dc:format>image/svg+xml</dc:format>
        <dc:type
           rdf:resource="http://purl.org/dc/dcmitype/StillImage" />
        <dc:title />
      </cc:Work>
    </rdf:RDF>
  </metadata>
  <g
     inkscape:label="Layer 1"
     inkscape:groupmode="layer"
     id="layer1"
     transform="translate(0,-28.362192)">
    <rect
       style="opacity:1;fill:#ffffff;fill-opacity:1;fill-rule:nonzero;stroke:none;stroke-width:1;stroke-linecap:round;stroke-linejoin:round;stroke-miterlimit:4;stroke-dasharray:none;stroke-opacity:1"
       id="rect3340"
       width="1078.5714"
       height="1085.7142"
       x="-32.142857"
       y="-8.3520947" />
    <text
       xml:space="preserve"
       style="font-style:normal;font-weight:normal;font-size:40px;line-height:129.99999523%;font-family:sans-serif;letter-spacing:0px;word-spacing:0px;fill:#000000;fill-opacity:1;stroke:none;stroke-width:1px;stroke-linecap:butt;stroke-linejoin:miter;stroke-opacity:1"
       x="88.103516"
       y="588.401"
       id="text4136"
       sodipodi:linespacing="130%"><tspan
         sodipodi:role="line"
         id="tspan4138"
         x="88.103516"
         y="588.401"
         style="font-style:normal;font-variant:normal;font-weight:300;font-stretch:normal;font-size:142.5px;line-height:129.99999523%;font-family:'Roboto Slab';-inkscape-font-specification:'Roboto Slab Light';fill:#4bb6f6;fill-opacity:1">The</tspan><tspan
         sodipodi:role="line"
         x="88.103516"
         y="773.651"
         id="tspan4140"
         style="font-style:normal;font-variant:normal;font-weight:bold;font-stretch:normal;font-size:142.5px;line-height:129.99999523%;font-family:'Roboto Slab';-inkscape-font-specification:'Roboto Slab Bold';fill:#4bb6f6;fill-opacity:1">MakerForce</tspan><tspan
         sodipodi:role="line"
         x="88.103516"
         y="958.901"
         id="tspan4142"
         style="font-style:normal;font-variant:normal;font-weight:300;font-stretch:normal;font-size:142.5px;line-height:129.99999523%;font-family:'Roboto Slab';-inkscape-font-specification:'Roboto Slab Light';fill:#4bb6f6;fill-opacity:1">Show</tspan></text>
    <g
       id="g4222"
       transform="matrix(0.19975191,0,0,0.20334792,735.44158,109.02777)">
      <path
         id="path4212"
         d="m 513.43,26.233 c -276.486,0 -500.622,221.497 -500.622,494.73 0,245.8 181.377,449.705 419.086,488.18 l 1.988,-170.615 c -0.36,-114.206 -87.025,-142.83 -135.832,-223.18 -47.932,-78.862 19.106,-234.354 28.97,-261.17 9.813,-26.665 35.278,-11.86 37.693,-0.404 2.312,11.56 25.694,98.316 35.044,128.32 9.35,29.795 17.945,79.468 118.64,62.207 96.74,-16.693 86.51,-87.532 78.187,-120.514 -8.273,-33.137 -23.788,-109.27 -27.792,-126.74 -3.956,-17.618 3.837,-36.115 33.018,-14.54 29.233,21.528 131.37,115.455 153.206,186.814 24.403,79.68 10.215,156.933 -92.69,221.816 -48.033,30.263 -71.46,93.242 -71.41,133.88 l 0.074,184.752 c 239.65,-36.838 423.06,-241.642 423.06,-488.804 0,-273.232 -224.135,-494.73 -500.62,-494.73 z"
         inkscape:connector-curvature="0"
         style="fill:#4bb6f6;fill-opacity:1" />
      <path
         id="path4214"
         d="m 363.188,349.78 -0.313,2.5 c 0.22,0.568 0.414,1.132 0.53,1.69 2.324,11.61 25.827,98.766 35.22,128.905 9.393,29.932 18.006,79.84 119.156,62.5 12.38,-2.137 23.01,-5.164 32.128,-8.875 L 363.189,349.78 Z m 342.562,36.126 c 22.43,27.916 41.597,57.58 49.72,84.125 24.512,80.047 10.275,157.667 -93.095,222.847 -48.253,30.397 -71.77,93.647 -71.72,134.47 l 0.095,181.342 C 779.444,979.6 933.157,846.074 989.563,669.72 L 705.75,385.906 Z"
         inkscape:connector-curvature="0"
         style="fill:#0aa4ea" />
    </g>
  </g>
</svg>
